<?xml version="1.0" encoding="utf-8"?><!-- Generator: Adobe Illustrator 21.0.0, SVG Export Plug-In . SVG Version: 6.00 Build 0)  --><svg xmlns="http://www.w3.org/2000/svg" xmlns:xlink="http://www.w3.org/1999/xlink" viewBox="0 0 100 100" width="400px" height="400px"><g id="wind_sock"></g><g id="umbrella"></g><g id="temperature"></g><g id="snow_rain_night"></g><g id="snow_rain_day"></g><g id="windy_day"></g><g id="windy_night"></g><g id="storm_night"></g><g id="clear_night"></g><g id="snow_night"></g><g id="snow_day"></g><g id="snow_rain"></g><g id="foggy_night"></g><g id="cloudy_night"></g><g id="rain"></g><g id="storm"></g><g id="fog"></g><g id="wind"></g><g id="cloudy"></g><g id="sun"></g><g id="explorer"></g><g id="visio"></g><g id="access"></g><g id="note"></g><g id="outlook"></g><g id="pdf"></g><g id="power_point"></g><g id="exel"></g><g id="word"></g><g id="office"></g><g id="bridge"></g><g id="muse"></g><g id="flash"></g><g id="premiere"></g><g id="after_effects"></g><g id="dreamwever"></g><g id="indesign"></g><g id="lightroom"></g><g id="illustrator"></g><g id="photoshop"></g><g id="presentation"></g><g id="microphone"></g><g id="globe"></g><g id="password"></g><g id="break_link"></g><g id="link"></g><g id="tap"></g><g id="down"></g><g id="top"></g><g id="direction"></g><g id="move"></g><g id="click"></g><g id="point"></g><g id="like"></g><g id="support"></g><g id="wifi"></g><g id="music"></g><g id="more"></g><g id="visible"></g><g id="error"></g><g id="list"></g><g id="grid"></g><g id="favorite"></g><g id="exit"></g><g id="power"></g><g id="delete"></g><g id="msg"></g><g id="info"></g><g id="help"></g><g id="warning"></g><g id="cassete"></g><g id="piano"></g><g id="speaker"></g><g id="attention"></g><g id="crown"></g><g id="prize"></g><g id="medal"></g><g id="alarm"></g><g id="stopper"></g><g id="flag"></g><g id="snapchat"></g><g id="dribbble"></g><g id="flickr"></g><g id="youtube"></g><g id="skype"></g><g id="twitter"></g><g id="instagram"><g><path d="M69.961,17.654h-39c-7.168,0-13,5.832-13,13v39c0,7.168,5.832,13,13,13h39c7.168,0,13-5.832,13-13v-39C82.961,23.485,77.129,17.654,69.961,17.654z M80.961,69.654c0,6.065-4.935,11-11,11h-39c-6.065,0-11-4.935-11-11v-39c0-6.065,4.935-11,11-11h39c6.065,0,11,4.935,11,11V69.654z"/><path d="M77.461,47.654c-0.276,0-0.5,0.224-0.5,0.5v18.663c0,5.424-4.413,9.837-9.837,9.837H33.798c-5.424,0-9.837-4.413-9.837-9.837V33.49c0-5.424,4.413-9.837,9.837-9.837h33.663c0.276,0,0.5-0.224,0.5-0.5s-0.224-0.5-0.5-0.5H33.798c-5.976,0-10.837,4.861-10.837,10.837v33.326c0,5.976,4.861,10.837,10.837,10.837h33.326c5.976,0,10.837-4.861,10.837-10.837V48.154C77.961,47.877,77.737,47.654,77.461,47.654z"/><path d="M77.461,41.654c-0.276,0-0.5,0.224-0.5,0.5v4c0,0.276,0.224,0.5,0.5,0.5s0.5-0.224,0.5-0.5v-4C77.961,41.877,77.737,41.654,77.461,41.654z"/><path d="M76.961,38.154v2c0,0.276,0.224,0.5,0.5,0.5s0.5-0.224,0.5-0.5v-2c0-0.276-0.224-0.5-0.5-0.5S76.961,37.877,76.961,38.154z"/><path d="M62.458,37.264c-0.815-0.81-1.662-1.357-2.746-1.776c-1.09-0.423-2.228-0.64-3.719-0.705c-1.535-0.066-2.052-0.088-5.993-0.088c-3.979,0-4.465,0.011-6.024,0.09c-1.459,0.063-2.597,0.28-3.688,0.704c-1.085,0.418-1.932,0.966-2.746,1.776c-0.815,0.81-1.367,1.652-1.788,2.729c-0.426,1.084-0.645,2.215-0.709,3.694c-0.067,1.526-0.089,2.04-0.089,5.959c0,3.955,0.011,4.438,0.09,5.986c0.063,1.451,0.282,2.582,0.708,3.667c0.421,1.078,0.973,1.92,1.788,2.73c0.814,0.81,1.661,1.357,2.746,1.776c1.09,0.423,2.228,0.64,3.719,0.705C45.542,64.577,46.059,64.6,50,64.6c3.979,0,4.465-0.011,6.023-0.09c1.459-0.063,2.597-0.28,3.688-0.704c1.084-0.418,1.931-0.966,2.746-1.776c0.815-0.81,1.367-1.652,1.788-2.729c0.426-1.084,0.645-2.215,0.709-3.689c0.067-1.526,0.09-2.041,0.09-5.964c0-3.956-0.011-4.439-0.091-5.986c-0.063-1.452-0.282-2.583-0.708-3.668C63.824,38.916,63.273,38.074,62.458,37.264z M63.955,55.59c-0.059,1.337-0.256,2.369-0.641,3.347c-0.368,0.941-0.849,1.677-1.562,2.385c-0.711,0.707-1.452,1.186-2.402,1.552c-0.986,0.382-2.025,0.579-3.374,0.637C54.437,63.589,53.955,63.6,50,63.6c-3.92,0-4.432-0.022-5.98-0.089c-1.347-0.059-2.386-0.255-3.371-0.637c-0.95-0.367-1.69-0.845-2.401-1.552c-0.712-0.708-1.193-1.443-1.562-2.386c-0.384-0.979-0.582-2.01-0.64-3.35c-0.078-1.529-0.089-2.008-0.089-5.939c0-3.898,0.022-4.406,0.089-5.942c0.059-1.337,0.256-2.37,0.641-3.347c0.368-0.942,0.85-1.678,1.562-2.385c0.711-0.707,1.452-1.186,2.402-1.552c0.986-0.382,2.025-0.579,3.374-0.637c1.54-0.078,2.022-0.089,5.977-0.089c3.919,0,4.431,0.022,5.98,0.089c1.347,0.059,2.386,0.255,3.371,0.637c0.949,0.366,1.69,0.845,2.401,1.552c0.712,0.708,1.194,1.443,1.562,2.385l0,0.001c0.384,0.978,0.582,2.009,0.64,3.349c0.079,1.528,0.09,2.007,0.09,5.938C64.045,53.549,64.022,54.058,63.955,55.59z"/><path d="M49.989,41.72c-4.397,0-7.975,3.556-7.975,7.927c0,4.371,3.578,7.927,7.975,7.927s7.974-3.556,7.974-7.927C57.963,45.277,54.386,41.72,49.989,41.72z M49.989,56.574c-3.846,0-6.975-3.107-6.975-6.927c0-3.819,3.129-6.927,6.975-6.927s6.974,3.107,6.974,6.927C56.963,53.467,53.835,56.574,49.989,56.574z"/><path d="M58.03,39.195c-1.236,0-2.242,1.001-2.242,2.231c0,1.23,1.006,2.231,2.242,2.231s2.242-1.001,2.242-2.231C60.273,40.196,59.267,39.195,58.03,39.195z M58.03,42.657c-0.685,0-1.242-0.552-1.242-1.231c0-0.679,0.557-1.231,1.242-1.231s1.242,0.552,1.242,1.231C59.273,42.105,58.716,42.657,58.03,42.657z"/></g></g><g id="linkedin"></g><g id="vimeo"></g><g id="tumbler"></g><g id="google"></g><g id="whatsapp"></g><g id="facebook"></g><g id="curve"></g><g id="paint_bucket"></g><g id="roller"></g><g id="switch"></g><g id="scissors"></g><g id="picker"></g><g id="brush"></g></svg>